<svg width="200" height="189" viewBox="0 0 200 189" fill="none" xmlns="http://www.w3.org/2000/svg">
<path d="M135.864 152.039C134.466 130.662 133.866 103.49 133.866 79.1163V19.7791C129.271 15.1839 122.478 9.58985 115.884 4.99471V2.99683L129.67 0C141.259 3.5962 160.44 9.58985 167.832 15.5835C169.031 16.5825 170.629 18.1808 170.23 19.9789L166.234 35.9619V65.3309C166.234 82.7125 164.835 108.885 163.437 127.265C158.242 135.057 148.651 145.646 141.858 152.039H135.864ZM171.429 80.5148C175.824 73.3224 183.816 65.3309 189.011 60.7357L191.209 60.5359C196.204 66.7294 200 78.9165 200 85.3097L197.403 89.1057L171.429 88.9059V80.5148ZM53.5464 183.206C52.947 178.411 52.5475 172.218 52.5475 165.625V143.448C47.7522 139.452 41.5584 135.656 37.1628 133.459V131.461L53.7463 127.865C62.7373 128.864 73.9261 131.461 81.9181 134.258C83.5165 134.857 84.5155 136.256 84.5155 137.854V188.6L60.1399 189L53.5464 183.206ZM177.423 188.8C165.235 188.001 138.661 187.801 135.265 187.801H132.667V185.604L136.264 179.41C146.254 174.216 159.241 168.422 167.632 166.624C171.628 170.22 177.622 179.81 179.62 186.403L177.423 188.8ZM19.1808 121.871C15.984 101.892 15.3846 86.5085 15.3846 74.7209V40.5571C11.5884 36.7611 6.59341 32.7653 0 28.5698V26.5719L15.1848 23.9746C26.7732 27.1712 39.3606 31.3668 45.954 36.5613C47.1528 37.5603 48.7512 39.1586 48.3516 40.9567L45.5544 57.1395V69.7262C45.5544 80.9144 45.3546 92.7019 44.1558 104.889C39.7602 111.282 31.5684 117.476 24.3756 121.871H19.1808ZM62.1379 104.689C67.5325 103.291 72.7273 102.092 77.3227 101.293C76.7233 89.1057 76.7233 79.9154 76.7233 69.1269C72.5275 69.7262 68.7313 69.926 63.9361 70.1258C62.3377 68.1279 61.9381 65.9302 61.9381 63.7326V61.1353C66.5335 61.1353 70.3297 61.1353 76.7233 60.3362V33.5645C72.9271 29.7685 67.3327 25.3731 60.7393 21.1776V19.1797L76.1239 16.5825C87.7123 19.7791 101.698 24.574 108.292 29.7685C109.491 30.7674 111.089 32.3658 110.689 34.1639L107.093 50.1469V65.9302C107.093 77.3182 106.094 88.9059 104.296 99.4947C107.493 102.492 110.889 106.288 113.087 109.684L112.088 111.482H62.1379V104.689Z" fill="black"/>
</svg>
