<svg width="200" height="197" viewBox="0 0 200 197" fill="none" xmlns="http://www.w3.org/2000/svg">
<path d="M33.8947 142.161C21.8947 142.161 14.1053 140.051 8.63158 134.567C10.9474 128.873 13.2632 123.178 16.2105 117.272V56.1049C10.3158 52.3084 4.63158 48.5118 0 42.1842L21.8947 33.5364C28.6316 37.9657 35.7895 40.4968 46.7368 43.8715V70.6585L82.9474 70.0257V46.4026C77.0526 42.606 71.3684 38.8094 66.7368 32.4818L88.421 23.8341C95.1579 28.2634 102.316 30.7944 113.263 34.1692V112.632L94.7368 121.279L105.053 121.069C108.421 121.069 110.947 120.858 114.737 119.803L116 121.701L109.053 140.895C108.842 141.528 108 141.739 107.579 141.739H94.1053L33.8947 142.161ZM46.7368 120.436C49.2632 121.49 52.6316 121.701 55.7895 121.701L82.9474 121.279V90.0632L46.7368 90.6959V120.436ZM119.579 8.015L140.632 0C148.211 4.42934 156 8.015 166.947 11.8116V78.4625L185.474 78.2516C189.895 78.2516 194.526 77.8298 198.316 76.7752L200 79.3062L192.632 104.195C192.211 105.249 190.947 105.46 189.684 105.46C186.737 105.46 181.895 105.46 174.947 105.249L166.947 105.46V177.173L146.105 197H135.368V24.6777C129.263 19.8266 124.421 14.7645 119.579 8.015Z" fill="black"/>
</svg>
