<svg width="1832" height="461" viewBox="0 0 1832 461" fill="none" xmlns="http://www.w3.org/2000/svg">
<path d="M58.072 7H370.804V24.136C370.804 63.644 367.948 103.152 358.428 133.616L315.112 153.132H423.164V220.724H0V153.132H278.46C282.744 127.428 283.696 92.204 283.696 72.688H58.072V7ZM56.644 453.488V320.684H281.316V294.504H56.644V238.812H366.996V340.2L308.924 371.14H142.324V397.796H374.612V453.488H56.644Z" fill="black"/>
<path d="M427.164 336.056C483.332 292.264 569.488 196.112 610.424 81.872L612.804 77.112L644.22 72.352L679.444 103.768C682.776 106.624 684.204 109.48 682.776 112.812C644.22 199.444 574.724 278.46 517.128 318.92C485.712 334.152 455.724 340.816 433.352 343.196L427.164 336.056ZM475.24 128.044C468.576 128.044 460.484 115.192 457.152 106.148C450.488 98.056 441.92 91.868 433.352 86.156L435.732 78.064C460.008 80.92 500.468 83.3 532.36 81.872L529.98 101.864C518.08 110.908 502.372 120.428 489.044 125.188C482.38 127.568 478.572 128.044 475.24 128.044ZM650.884 334.628C643.268 298.452 636.128 270.844 624.228 239.904L636.128 231.336C669.924 243.712 698.484 260.848 719.428 281.792C711.336 306.544 688.012 329.392 661.832 337.96L650.884 334.628ZM751.796 460.292C748.464 409.36 747.036 344.624 747.036 286.552V47.124C736.088 36.176 719.904 22.848 704.196 11.9V7.14L737.04 0C764.648 8.568 810.344 22.848 827.956 37.128C830.812 39.508 834.62 43.316 833.668 47.6L824.148 85.68V238C824.148 279.412 820.816 357.476 817.484 401.268C805.108 419.832 782.26 445.06 766.076 460.292H751.796ZM836.524 232.764C846.996 215.628 866.036 196.588 878.412 185.64L883.648 185.164C895.548 199.92 904.592 228.956 904.592 244.188L898.404 253.232L836.524 252.756V232.764Z" fill="black"/>
<path d="M908.592 239.096C944.768 241 1007.12 240.048 1065.2 235.288C1071.38 198.16 1072.34 157.224 1071.38 124.856H929.536L927.156 119.144L947.148 46.792L981.896 51.076H1071.38L1079.48 41.08L1166.11 49.172V85.348C1166.11 126.76 1162.3 181.976 1153.73 223.864C1164.2 221.484 1173.25 219.104 1181.34 216.724L1187.53 283.364C1165.63 292.884 1128.98 299.072 1088.52 303.356V447.584H1000.46V309.544C965.712 310.972 934.296 311.448 913.828 310.972L908.592 239.096ZM1113.27 379.04V317.16H1200.38V62.024L1190.86 30.608L1195.14 21.088C1217.99 19.66 1259.88 16.804 1279.87 14.9L1287.01 16.804V449.964H1200.38V379.04H1113.27ZM1294.15 18.708L1298.44 9.188C1321.28 7.75999 1360.79 4.904 1380.78 3L1387.92 4.904V456.628H1302.72V50.124L1294.15 18.708Z" fill="black"/>
<path d="M1532.82 250.352C1505.69 250.352 1488.08 245.592 1475.7 233.216C1480.46 220.364 1485.22 207.988 1491.88 194.66V117.548C1476.18 115.644 1461.42 110.408 1456.18 95.176L1499.02 59C1507.59 69.948 1526.63 70.9 1543.77 70.9L1735.12 68.996C1742.74 68.996 1754.16 66.14 1765.58 62.332L1769.39 68.044L1752.73 112.788C1751.3 116.12 1749.88 117.548 1747.02 117.548L1562.33 118.5V198.468C1568.04 200.848 1575.66 201.324 1582.8 201.324L1742.26 199.42C1749.88 199.42 1755.59 198.468 1764.16 196.088L1767.01 200.372L1751.3 247.02C1750.83 248.448 1748.92 248.924 1747.97 248.924L1532.82 250.352ZM1391.92 395.532C1401.92 376.016 1419.53 350.788 1438.1 334.604C1456.18 338.412 1474.27 338.412 1492.84 338.412L1598.98 337.936C1598.51 335.08 1598.51 332.224 1598.51 329.844V315.564C1593.75 305.568 1585.66 292.24 1577.56 283.672C1597.56 269.868 1633.73 262.728 1656.1 262.252C1661.82 270.82 1666.1 284.148 1668.48 296.524C1669.43 301.284 1669.43 306.044 1669.43 310.328V337.936L1788.43 337.46C1796.05 337.46 1814.14 336.984 1827.94 331.748L1831.75 337.46L1810.33 387.916C1808.9 391.248 1807.47 392.676 1804.62 392.676H1774.15L1476.65 393.628C1452.38 393.628 1426.67 395.056 1398.59 402.196L1391.92 395.532Z" fill="black"/>
</svg>
