<svg width="1362" height="467" viewBox="0 0 1362 467" fill="none" xmlns="http://www.w3.org/2000/svg">
<path d="M943.792 271.32L896.668 216.104V211.344C948.076 189.924 1006.15 152.32 1045.66 113.764H910.472L907.616 107.1L930.464 31.4158L967.116 37.1279H1091.83L1100.4 27.6078L1186.08 37.1279C1186.08 45.2198 1186.08 55.6918 1185.12 64.7358H1245.58V52.3599L1229.39 20.9438L1233.68 11.4238C1256.52 10.4718 1323.16 7.13984 1343.16 5.23584L1350.3 7.13984V252.756H1245.58V223.244H1131.34V156.604H1245.58V131.376H1150.85C1107.54 191.352 1043.75 237.524 965.688 273.7C958.548 276.08 948.076 277.032 943.792 271.32ZM990.44 310.828L993.772 268.94H1358.39V274.652L1350.77 324.632H1103.25V342.244H1344.58V347.956L1336.97 393.176H1103.25V410.788H1361.72V416.5L1354.58 466.48H1041.37C1016.62 466.48 1007.58 453.628 1007.58 431.732V329.392L990.44 310.828Z" fill="black"/>
<path d="M416.139 336.056C472.307 292.264 558.463 196.112 599.399 81.872L601.779 77.112L633.195 72.352L668.419 103.768C671.751 106.624 673.179 109.48 671.751 112.812C633.195 199.444 563.699 278.46 506.103 318.92C474.687 334.152 444.699 340.816 422.327 343.196L416.139 336.056ZM464.215 128.044C457.551 128.044 449.459 115.192 446.127 106.148C439.463 98.056 430.895 91.868 422.327 86.156L424.707 78.064C448.983 80.92 489.443 83.3 521.335 81.872L518.955 101.864C507.055 110.908 491.347 120.428 478.019 125.188C471.355 127.568 467.547 128.044 464.215 128.044ZM639.859 334.628C632.243 298.452 625.103 270.844 613.203 239.904L625.103 231.336C658.899 243.712 687.459 260.848 708.403 281.792C700.311 306.544 676.987 329.392 650.807 337.96L639.859 334.628ZM740.771 460.292C737.439 409.36 736.011 344.624 736.011 286.552V47.124C725.063 36.176 708.879 22.848 693.171 11.9V7.13999L726.015 0C753.623 8.568 799.319 22.848 816.931 37.128C819.787 39.508 823.595 43.316 822.643 47.6L813.123 85.68V238C813.123 279.412 809.791 357.476 806.459 401.268C794.083 419.832 771.235 445.06 755.051 460.292H740.771ZM825.499 232.764C835.971 215.628 855.011 196.588 867.387 185.64L872.623 185.164C884.523 199.92 893.567 228.956 893.567 244.188L887.379 253.232L825.499 252.756V232.764Z" fill="black"/>
<path d="M58.072 11.4243H370.804V28.5603C370.804 68.0683 367.948 107.576 358.428 138.04L315.112 157.556H423.164V225.148H0V157.556H278.46C282.744 131.852 283.696 96.6283 283.696 77.1123H58.072V11.4243ZM56.644 457.912V325.108H281.316V298.928H56.644V243.236H366.996V344.624L308.924 375.564H142.324V402.22H374.612V457.912H56.644Z" fill="black"/>
</svg>
