<svg width="1397" height="756" viewBox="0 0 1397 756" fill="none" xmlns="http://www.w3.org/2000/svg">
<path d="M433.75 366.5L0 451.13V384.63L275.06 330.98C277.08 319.9 278.46 306.93 279.22 292.06C279.98 277.2 280.35 263.47 280.35 250.88L64.99 293.2V228.21L366.5 170.02V190.42C366.5 234.25 358.94 276.56 336.27 319.64L433.75 299.99V366.49V366.5ZM1276.31 286.4L1352.63 272.04V0L1276.31 15.11V85.57L1193.94 101.26V161.71L1276.31 146.02V180.78L1193.94 196.47V256.92L1276.31 241.23V286.39V286.4ZM663.12 349.33C687.01 300.38 701.25 255.34 701.25 221.41V159.45L478.33 202.52V270.53L600.75 247.1V272.04C600.75 373.3 516.87 507.8 412.59 605.28C371.78 640.8 290.17 685.38 206.3 685.38C191.19 685.38 182.87 674.8 182.87 656.67C182.87 636.85 182.87 618.11 183.86 602.94L366.49 567.5V522.16L332.91 528.68C352.27 501.45 362.71 464.1 362.71 443.58V417.89L69.52 474.56V532.75L278.08 492.7C278.08 498.83 277.47 521.54 275.68 539.79L62.71 581.11V626.45L152.39 609.05C130.89 628.58 102.26 656.56 85.38 680.1V755.67L244.82 724.69C304.52 714.11 358.17 687.66 430.71 640.06C508.44 580.03 585.67 485.95 637.59 396.88L718.61 491.2L777.55 428.48C740.02 389.53 719.07 375.8 663.09 349.35L663.12 349.33ZM1070.77 408.06L1367.74 350.63V291.69L1070.77 349.88V408.07V408.06ZM1143.31 509.31C1136.51 505.53 1131.98 494.95 1131.98 482.11C1131.98 479.62 1132.01 477.04 1132.06 474.42L1361.7 429.97V381.61L1129.71 426.19C1125.93 428.46 1063.21 471.53 1034.5 511.58V589.41L1396.46 519.13V459.43L1143.32 509.3L1143.31 509.31ZM1178.07 120.91V59.7L958.93 102.02V170.03L1077.57 147.36V166.25C1077.57 222.92 1039.79 290.18 961.96 361.96L977.07 375.56C1113.84 310.57 1178.07 194.96 1178.07 120.9V120.91ZM873.54 92.95L797.22 108.06V617.37L871.27 606.79L872.38 354.12L942.3 340.8V272.04L872.69 285.3L873.54 92.95Z" fill="black"/>
</svg>
