<svg width="1347" height="434" viewBox="0 0 1347 434" fill="none" xmlns="http://www.w3.org/2000/svg">
<path d="M129.6 194V14H166.6V67.9198H190V100.993H166.6V194H129.6ZM57.8 154.713C28.2 154.713 9.6 135.269 9.6 110.815C9.6 86.1603 28.2 66.9176 57.8 66.9176C87.6 66.9176 106 86.1603 106 110.815C106 135.269 87.6 154.713 57.8 154.713ZM58.2 125.648C69.4 125.648 73.4 119.434 73.4 110.214C73.4 100.793 69.4 94.7795 58.2 94.7795C47.2 94.7795 42.8 100.793 42.8 110.214C42.8 119.434 47.2 125.648 58.2 125.648ZM0 61.3051V32.441H38.4V14H75.4V32.441H111.8V61.3051H0Z" fill="black"/>
<path d="M325.492 187.614V19.4899L318.798 6.49661L320.57 2.55927C330.02 2.16553 357.581 0.78747 365.849 0L368.802 0.78747V73.8252H396.561V78.3531L393.608 110.246H368.802V187.614H325.492ZM193 28.9395L194.772 25.0021C204.221 24.4115 231.783 23.2303 240.051 22.4429L243.004 23.2303V116.348C264.463 116.152 292.024 115.167 316.239 108.868L319.192 142.926C286.709 151.588 249.895 152.178 215.246 152.178C203.828 152.178 199.693 146.469 199.693 136.429V41.9327L193 28.9395Z" fill="black"/>
<path d="M437.34 78.801C437.34 68.7607 439.112 64.2328 442.655 58.7205L460.57 56.7518L468.642 43.168C473.957 40.6087 482.029 39.2307 490.691 39.2307C516.481 39.2307 531.639 54.1926 531.639 77.0292C531.639 102.031 511.165 117.781 481.635 117.781C453.483 117.781 437.34 104.197 437.34 78.801ZM421 162.863C425.528 154.398 431.04 145.342 436.356 139.633C443.837 140.42 452.105 140.224 459.783 139.83L552.31 134.121V35.0965C546.601 30.5685 542.073 25.8437 537.545 19.5439L556.248 12.063C563.335 16.1972 570.619 19.5439 580.856 23.0876V177.431L561.957 195.937H552.31V154.792L455.058 160.895C445.018 161.288 435.174 162.666 423.559 165.619L421 162.863ZM465.492 79.5884C465.492 92.5817 470.611 98.4877 483.801 98.4877C497.188 98.4877 503.487 91.9911 503.487 77.8166C503.487 66.2015 498.763 58.7205 484.391 58.7205C477.895 58.7205 473.957 59.9017 469.626 62.2641C465.886 67.5795 465.492 73.4855 465.492 79.5884Z" fill="black"/>
<path d="M645.559 132.743C663.474 123.293 679.224 111.087 690.839 98.094L646.15 103.213L643 72.895L708.557 68.5639C709.935 64.036 710.919 59.5081 710.919 55.177H651.268V26.4344H750.489V29.1905C750.489 44.743 748.521 59.1143 744.387 72.5013H775.295V15.6067H811.715V192.393H775.295V103.213H741.04V82.3446C728.44 114.434 703.635 139.633 668.199 158.138L645.559 132.743Z" fill="black"/>
<path d="M861.388 16.1973C864.932 20.7252 872.807 21.1189 884.422 21.1189C913.361 21.1189 940.332 20.9221 961.2 17.5753L964.94 19.9377L964.547 31.9466C964.153 39.4276 962.775 55.5707 960.806 66.5952L938.757 72.5013L955.688 72.3044C958.838 72.3044 961.2 71.9107 964.744 71.1232L965.925 72.895L959.428 90.613C959.231 91.2036 958.444 91.4005 958.05 91.4005H945.451L876.941 91.9911C865.719 91.9911 858.435 90.0224 853.317 84.9039C855.285 79.5885 857.254 74.4699 860.01 68.9577L857.254 40.0182C851.348 39.2307 845.639 36.6714 843.67 30.3717L861.388 16.1973ZM815.715 127.821C819.849 119.749 827.133 109.315 834.811 102.622C842.292 104.197 849.576 104.197 857.254 104.197L979.705 103.803C982.855 103.803 990.336 103.606 996.045 101.441L997.62 103.803L988.761 124.671C988.171 126.049 987.58 126.64 986.399 126.64H951.947V176.053L934.623 191.803H924.386V126.837H897.218V171.132L879.894 186.881H869.46V127.033H850.561C840.52 127.033 830.086 127.624 818.471 130.577L815.715 127.821ZM886.784 40.215L887.769 71.9107C890.131 72.895 893.281 73.0919 896.234 73.0919L932.654 72.6981C934.032 58.5237 934.623 48.6803 934.82 38.4432C921.039 39.2307 902.927 39.8213 886.784 40.215Z" fill="black"/>
<path d="M1140.61 197.807V29.6827L1133.92 16.6895L1135.69 12.7521C1145.14 12.3584 1172.7 10.9803 1180.97 10.1929L1183.92 10.9803V197.807H1140.61ZM1001.62 39.3292L1003.39 35.3919C1012.84 34.8013 1040.4 33.6201 1048.67 32.8326L1051.62 33.6201V126.738C1073.08 126.541 1100.64 125.557 1124.86 119.257L1127.81 153.315C1095.33 161.977 1058.51 162.568 1023.87 162.568C1012.45 162.568 1008.31 156.859 1008.31 146.819V52.3224L1001.62 39.3292Z" fill="black"/>
<path d="M1309.78 192.393V15.6067H1346.2V192.393H1309.78ZM1187.92 149.476V25.8438H1283.01V54.5864H1224.14V71.517H1276.9V99.8658H1224.14V120.143H1231.43C1257.41 120.143 1274.34 118.568 1294.82 113.056L1296.79 140.617C1273.36 148.098 1244.03 149.476 1214.89 149.476H1187.92Z" fill="black"/>
<path d="M1 327.751C1 315.742 2.96867 308.458 6.31541 302.946L26.199 300.584L35.2549 284.244C39.3891 282.078 46.2794 280.503 54.5479 280.503C70.4941 280.503 82.503 285.622 89.9839 294.481C95.1025 295.071 98.4492 295.268 102.78 295.268L125.026 295.071V269.282C119.317 264.754 114.789 260.029 110.261 253.729L129.948 246.248C137.035 250.383 144.319 253.729 154.556 257.273V411.617L135.067 430.122H125.026V352.163L97.0712 352.557H91.5589C82.503 365.747 66.5568 373.031 47.2638 373.031C18.718 373.031 1 357.281 1 327.751ZM30.5301 326.964C30.5301 345.272 37.8142 351.769 49.823 351.769C62.6194 351.769 70.4941 344.682 70.4941 327.554C70.4941 310.033 64.9818 301.962 50.2168 301.962C43.917 301.962 38.2079 303.93 35.2549 305.899C31.7113 310.624 30.5301 318.695 30.5301 326.964ZM98.0555 311.018C99.0398 315.152 99.6304 319.68 99.6304 324.601C99.6304 328.932 99.2367 332.87 98.4492 336.807H102.78L125.026 336.61V310.624L98.0555 311.018Z" fill="black"/>
<path d="M175.29 384.351C174.699 379.232 174.306 372.342 174.306 367.814V334.937C169.975 331.59 164.462 327.85 158.556 324.306V322.337L172.534 318.597C180.605 319.778 195.764 323.716 202.851 326.669C204.82 327.456 205.804 328.834 205.804 331.393V375.295C232.578 372.735 254.824 367.42 271.164 361.12C272.346 361.908 272.936 363.483 272.346 364.861C252.856 376.082 216.632 386.122 181.59 389.272L175.29 384.351ZM180.015 293.398C176.865 293.398 173.715 288.083 172.337 284.342C169.581 280.995 166.234 278.436 162.494 276.074L163.478 272.727C174.306 273.908 188.086 274.499 203.245 274.499L202.655 282.57C197.339 286.311 191.236 290.248 185.527 292.217C182.771 293.201 181.393 293.398 180.015 293.398ZM292.426 433.371C291.048 412.306 290.457 385.532 290.457 361.514V262.49C285.929 257.962 279.236 252.45 272.739 247.922V245.953L286.323 243C297.741 246.544 316.641 252.45 323.925 258.356C325.106 259.34 326.681 260.915 326.287 262.687L322.35 278.436V341.434C322.35 358.561 320.972 390.847 319.594 408.959C314.475 416.637 305.026 427.071 298.332 433.371H292.426ZM270.771 334.74C268.211 334.74 266.44 328.834 265.258 324.897C262.502 322.141 259.155 319.384 255.612 317.219L256.596 314.857C267.621 315.447 281.992 315.25 285.339 315.053V321.55C283.961 326.078 280.023 330.212 276.48 332.968C274.314 334.543 272.149 334.74 270.771 334.74ZM224.901 326.865C225.885 315.447 226.476 298.91 225.294 275.68L225.885 273.514L241.044 270.758L259.352 282.964C260.534 283.751 261.124 285.72 260.73 287.295L257.581 297.926C255.809 304.423 253.249 313.872 250.887 321.156C254.431 324.109 258.368 328.047 260.534 331.393L259.549 333.165H224.901V326.865Z" fill="black"/>
<path d="M488.357 423.429V251.17H520.644V306.686H532.259V249.792H564.939V426.579H532.259V336.413H520.644V423.429H488.357ZM388.349 360.234C418.076 342.713 439.337 315.939 441.306 290.74H394.845V262.785H478.908V265.738C478.908 315.939 455.481 356.888 409.807 383.465L388.349 360.234Z" fill="black"/>
<path d="M568.939 373.917C600.044 374.704 667.372 373.326 702.021 365.451L705.958 398.525C674.459 406.99 603.194 410.14 573.073 408.565L568.939 373.917ZM577.404 319.975V305.801C577.404 278.042 606.343 261.702 635.283 261.702C669.144 261.702 689.224 278.436 689.224 301.863V316.038C689.224 343.796 660.285 360.136 631.346 360.136C597.484 360.136 577.404 343.402 577.404 319.975ZM615.793 315.644C615.793 324.7 623.274 328.243 633.708 328.243C639.22 328.243 642.567 327.653 646.111 324.897C649.26 321.55 650.835 318.203 650.835 313.675V306.194C650.835 297.138 643.354 293.595 632.92 293.595C627.408 293.595 624.061 294.185 620.518 296.942C617.368 300.288 615.793 303.635 615.793 308.163V315.644ZM704.974 250.875L706.746 246.937C716.195 246.544 743.757 245.166 752.025 244.378L754.978 245.166V431.992H711.667V263.868L704.974 250.875Z" fill="black"/>
<path d="M925.452 286.409C922.105 282.866 918.758 280.503 914.427 277.944V276.172L925.649 272.825C936.476 274.991 945.139 277.156 951.635 281.094C952.816 281.881 954.391 283.456 953.801 285.228L951.045 294.678C950.06 299.599 948.092 308.852 946.123 316.333L924.468 316.727L925.452 286.409ZM865.407 423.429C864.817 418.704 864.423 412.601 864.423 406.104V392.127C859.698 388.19 853.595 384.449 849.264 382.284V380.315L865.604 376.771C874.463 377.756 885.488 380.315 893.363 383.071C894.937 383.662 895.922 385.04 895.922 386.615V428.744L871.904 429.138L865.407 423.429ZM987.465 428.941C975.456 428.154 949.273 427.957 945.926 427.957H943.367V425.791L946.91 419.688C956.754 414.57 969.55 408.861 977.819 407.089C981.756 410.632 987.662 420.082 989.631 426.579L987.465 428.941ZM855.17 335.823C853.005 335.823 849.658 332.082 848.083 327.161C845.327 324.208 842.177 321.255 838.83 318.892L839.815 315.546C850.249 316.727 864.62 317.317 879.976 317.317L878.991 325.586C872.298 329.917 867.967 332.476 860.289 335.035C858.32 335.626 856.548 335.823 855.17 335.823ZM868.557 361.612C860.879 366.534 852.611 370.668 845.327 373.228C842.965 374.015 840.405 374.606 838.043 374.606C833.515 374.606 829.578 368.503 827.806 364.369C825.247 360.825 821.112 356.888 816.978 354.132L818.356 350.588C834.893 352.163 853.202 353.344 867.967 353.344L868.557 361.612ZM966.007 352.163C975.653 346.454 989.631 339.563 998.49 337.201C1004.4 343.501 1010.1 352.95 1012.27 359.053L1010.3 362.203C997.505 361.022 981.362 360.234 965.416 360.234H962.463V358.069L966.007 352.163ZM903.009 361.022C901.631 355.116 900.647 340.941 900.647 337.004V325.192H930.177V336.413C930.177 340.548 929.389 354.132 928.011 360.628L903.009 361.022ZM876.432 291.134C872.888 286.803 869.148 284.047 865.407 282.078V280.306L873.873 277.353C882.338 277.944 894.937 279.913 900.647 282.669C902.418 283.456 903.009 284.441 903.206 286.803C903.993 293.496 903.993 308.852 903.993 316.924L881.157 317.121L876.432 291.134ZM855.564 277.55C853.398 277.55 850.052 273.81 848.477 268.888C845.721 265.935 842.571 262.982 839.224 260.62L840.208 257.273C850.642 258.454 865.014 259.045 880.369 259.045L879.385 267.313C872.691 271.644 868.36 274.203 860.683 276.763C858.714 277.353 856.942 277.55 855.564 277.55ZM983.921 326.373C972.503 325.389 955.966 324.601 947.501 324.601H944.942V322.83L947.895 316.333C956.557 311.608 966.794 307.277 974.078 305.505C979.197 310.624 982.937 316.53 985.299 323.42L983.921 326.373ZM978.606 268.101C967.385 267.116 950.651 266.329 942.186 266.329H939.626V264.557L942.579 258.06C951.241 253.336 961.479 249.004 968.566 247.233C973.881 252.351 977.622 258.257 979.984 265.148L978.606 268.101Z" fill="black"/>
<path d="M1073.56 360.333C1062.34 360.333 1055.05 358.364 1049.93 353.246C1052.1 347.93 1053.87 343.402 1056.63 337.89V293.201C1050.13 292.414 1044.03 290.248 1041.86 283.948L1059.58 270.168C1063.12 275.68 1071 275.089 1078.09 275.089L1158.21 274.302C1161.36 274.302 1166.09 273.121 1170.81 271.546L1172.39 273.908L1165.5 291.233C1164.9 292.611 1164.31 293.201 1163.13 293.201L1084.78 293.595V308.36L1153.49 307.769C1156.64 307.769 1161.36 306.588 1166.09 305.013L1167.66 307.376L1160.77 323.125C1160.18 324.503 1159.59 325.094 1158.41 325.094L1084.78 325.487V340.449C1087.14 341.434 1090.29 341.63 1093.25 341.63L1163.53 340.843C1166.68 340.843 1169.04 340.449 1172.58 339.465L1173.76 341.237L1167.27 358.955C1167.07 359.545 1166.28 359.742 1165.89 359.742L1073.56 360.333ZM1016.27 403.447C1020.4 395.375 1027.69 384.941 1035.37 378.248C1042.85 379.823 1050.33 379.823 1058.01 379.823L1180.26 379.429C1183.41 379.429 1190.89 379.232 1196.6 377.067L1198.18 379.429L1189.32 400.297C1188.73 401.675 1188.14 402.266 1186.95 402.266H1174.35L1051.31 402.659C1041.27 402.659 1030.64 403.25 1019.03 406.203L1016.27 403.447Z" fill="black"/>
</svg>
