<svg width="200" height="216" viewBox="0 0 200 216" fill="none" xmlns="http://www.w3.org/2000/svg">
<path d="M0 126.69V7.61036H107.175V38.9471H40.3587V55.287H100.224V74.0891H40.3587V94.9057H42.8251C72.4215 94.9057 109.417 91.1005 132.287 83.714V0H173.767V42.0808H200V79.0135H173.767V130.271H132.287V95.3534C107.175 111.917 68.3856 126.69 36.7713 126.69H0ZM107.399 216C68.6099 216 45.5157 199.884 45.5157 172.128C45.5157 145.492 68.6099 125.347 108.296 125.347H128.027V146.611H135.426C149.776 146.611 172.646 154.222 172.646 175.262C172.646 200.555 145.74 216 107.399 216ZM110.538 187.349C126.233 187.349 135.426 181.753 135.426 171.009C135.426 160.041 126.233 153.998 110.538 153.998C94.843 153.998 85.426 160.041 85.426 171.009C85.426 181.753 94.1704 187.349 110.538 187.349Z" fill="black"/>
</svg>
