<svg width="200" height="185" viewBox="0 0 200 185" fill="none" xmlns="http://www.w3.org/2000/svg">
<path d="M129.698 132.476V19.2587L123.077 6.41956L124.83 2.52892C134.177 2.13985 161.441 0.77813 169.62 0L172.541 0.77813V49.0221H200V53.4963L197.079 85.0105H172.541V132.476H129.698ZM0 39.1009L8.76339 14.5899L27.2639 17.1188H66.9912L70.3018 12.8391L108.666 16.1462V69.2534C103.992 72.1714 95.2288 76.2566 89.1918 78.5909H47.3223V90.4574C66.0175 90.4574 94.2551 88.9011 119.182 80.9253L122.103 108.743C93.6709 118.665 55.3067 120.026 21.0321 120.026C9.15287 120.026 4.86855 113.218 4.86855 102.713V53.1073H66.2123V43.3806H1.55794L0 39.1009ZM28.6271 133.449L30.3797 129.558C39.7274 128.975 66.9912 127.808 75.1704 127.029L78.0915 127.808V151.346H180.526V153.875L177.41 185H50.6329C39.3379 185 35.2483 179.359 35.2483 169.437V146.288L28.6271 133.449Z" fill="black"/>
</svg>
